<svg data-v-0dd9719b="" version="1.0" xmlns="http://www.w3.org/2000/svg" xmlns:xlink="http://www.w3.org/1999/xlink" width="100%" height="100%" viewBox="0 0 340.000000 250.000000" preserveAspectRatio="xMidYMid meet" color-interpolation-filters="sRGB" style="margin: auto;"> <rect data-v-0dd9719b="" x="0" y="0" width="100%" height="100%" fill="#fff" fill-opacity="1" class="background"></rect> <rect data-v-0dd9719b="" x="0" y="0" width="100%" height="100%" fill="url(#watermark)" fill-opacity="1" class="watermarklayer"></rect> <g data-v-0dd9719b="" fill="#3B4C9F" class="icon-text-wrapper icon-svg-group iconsvg" transform="translate(65.31000518798828,95)"><g fill="#652d90" class="iconsvg-imagesvg icon_container" transform="translate(0,0)"><rect fill="#3B4C9F" fill-opacity="0" stroke-width="2" x="0" y="0" width="60" height="60" class="image-rect"></rect> <svg viewBox="0 0 60 60" x="0" y="0" width="60" height="60" class="image-svg-svg bn" style="overflow: visible;"><g hollow-target="iconBnOutline"><g mask="url(#b759005a-41b4-48aa-bde9-1ca05189b48e)"><svg fill="#000000" xmlns="http://www.w3.org/2000/svg" viewBox="5 5 90 90" x="0" y="0" style="overflow: visible;" width="60" height="60" filtersec="colorsb1829464159" filter="url(#Gay65kWFg9JlA6UWnbI0T)"><g transform="scale(1, 1) skewX(0)"><path d="M 5,5.000003 5,95 l 90,0 0,-89.999997 -90,0 z m 3,3 84,0 L 92,92 8,92 8,8.000003 z" color="#000"></path></g><defs><filter id="Gay65kWFg9JlA6UWnbI0T"><feColorMatrix type="matrix" values="0 0 0 0 0.39453125  0 0 0 0 0.17578125  0 0 0 0 0.5625  0 0 0 1 0"></feColorMatrix></filter></defs></svg></g> <g><svg xmlns="http://www.w3.org/2000/svg" viewBox="0 0 135.98 134.6" width="52" height="52" x="4" y="4" class="image-svg-icon"><g><g><path d="M3.18 0h25.16s-19.16 30.13.57 64.07C28.91 64.07-9 47.1 3.18 0z" fill="#8bc53f"></path><path d="M136 2.41l-.12 25.16s-30-19-64.07.88c-.02 0 17.12-38.03 64.19-26.04z" fill="#3b4c9f"></path><path d="M133 134.6h-25.15s19.16-30.13-.57-64.07c0 0 37.95 16.97 25.72 64.07z" fill="#652d90"></path><path d="M0 132.17L.14 107s30 19 64.07-.88c0 .01-17.15 38.05-64.21 26.05z" fill="#ee0d00"></path><path d="M.13 51.7L0 79.78l27.37 27.5s26.92-.58 46.29-15.21l3.27-9.95S32.68 97 .13 51.7z" fill="#f6921e"></path><path d="M83.56.14H55.48l-27.63 27.5s.46 26.92 15 46.23l9.93 3.22S38.06 32.91 83.56.14z" fill="#009345"></path><path d="M135.61 82.8l.13-28.09-27.37-27.5s-26.92.58-46.29 15.21l-3.27 9.95s44.25-14.92 76.8 30.43z" fill="#1b75bb"></path><path d="M52.94 134.55H81l27.63-27.5s-.46-26.92-15-46.22l-9.93-3.22s14.74 44.17-30.76 76.94z" fill="#90278e"></path></g></g></svg></g></g><mask id="b759005a-41b4-48aa-bde9-1ca05189b48e"><g fill="white"><svg xmlns="http://www.w3.org/2000/svg" viewBox="5 5 90 90" x="0" y="0" style="overflow: visible;" width="60" height="60" filtersec="colorsb1829464159"><g transform="scale(1, 1) skewX(0)"><path d="M 5,5.000003 5,95 l 90,0 0,-89.999997 -90,0 z m 3,3 84,0 L 92,92 8,92 8,8.000003 z" color="#000"></path></g><defs></defs></svg></g> <g fill="black" filter="url(#ae05e50d-a575-4c2e-85ff-edfbcbc91bc4)"><svg xmlns="http://www.w3.org/2000/svg" viewBox="0 0 135.98 134.6" width="52" height="52" x="4" y="4" class="image-svg-icon"><g><g><path d="M3.18 0h25.16s-19.16 30.13.57 64.07C28.91 64.07-9 47.1 3.18 0z"></path><path d="M136 2.41l-.12 25.16s-30-19-64.07.88c-.02 0 17.12-38.03 64.19-26.04z"></path><path d="M133 134.6h-25.15s19.16-30.13-.57-64.07c0 0 37.95 16.97 25.72 64.07z"></path><path d="M0 132.17L.14 107s30 19 64.07-.88c0 .01-17.15 38.05-64.21 26.05z"></path><path d="M.13 51.7L0 79.78l27.37 27.5s26.92-.58 46.29-15.21l3.27-9.95S32.68 97 .13 51.7z"></path><path d="M83.56.14H55.48l-27.63 27.5s.46 26.92 15 46.23l9.93 3.22S38.06 32.91 83.56.14z"></path><path d="M135.61 82.8l.13-28.09-27.37-27.5s-26.92.58-46.29 15.21l-3.27 9.95s44.25-14.92 76.8 30.43z"></path><path d="M52.94 134.55H81l27.63-27.5s-.46-26.92-15-46.22l-9.93-3.22s14.74 44.17-30.76 76.94z"></path></g></g></svg></g><defs><filter id="ae05e50d-a575-4c2e-85ff-edfbcbc91bc4"><feGaussianBlur in="SourceGraphic" stdDeviation="1.26"></feGaussianBlur><feComponentTransfer><feFuncA type="discrete" tableValues="0 1 1 1 1 1 1 1 1 1 1 1 1 1 0"></feFuncA></feComponentTransfer></filter></defs></mask></svg> <!----></g> <g transform="translate(67,6.555938720703125)"><g data-gra="path-name" fill-rule="" class="tp-name iconsvg-namesvg" transform="translate(0,0)"><g transform="scale(1)"><g><path d="M33.55-22.54L33.55 2.52 28.8 2.52 28.8-0.07 3.82-0.07 3.82-22.43 8.57-22.43 8.57-3.06 16.2-3.06 16.2-29.63 21.02-29.63 21.02-3.06 28.8-3.06 28.8-22.54 33.55-22.54ZM54.18-19.94L57.46-19.94 57.46-25.02 54.18-25.02 54.18-19.94ZM66.31-10.8L66.24-10.76 66.24-17.32 61.92-17.32Q61.92-11.09 62.06-10.96 62.21-10.84 62.53-10.84L62.53-10.84Q66.31-10.84 66.31-10.8L66.31-10.8ZM45.86-2.3L66.24-2.3 66.24-8.14 62.1-8.14Q59.15-8.14 58.3-9.07 57.46-10.01 57.46-12.2L57.46-12.2 57.46-17.32 54.14-17.32Q54.11-14.47 52.72-11.79 51.34-9.11 46.33-6.62L46.33-6.62Q45.9-7.34 45.18-8.32L45.18-8.32Q45.22-8.32 45.86-7.6L45.86-7.6 45.86-2.3ZM45.86-17.32L45.86-9.65Q47.48-10.51 48.62-12.6 49.75-14.69 49.82-17.32L49.82-17.32 45.86-17.32ZM45.86 0.36L45.86 2.48 41.33 2.48 41.33-19.94 49.86-19.94 49.86-25.02 39.46-25.02 39.46-27.83 72.36-27.83 72.36-25.02 61.92-25.02 61.92-19.94 70.92-19.94 70.92 2.41 66.24 2.41 66.24 0.36 45.86 0.36ZM87.08-25.63L85.14-22.72Q81.76-25.7 77.98-27.4L77.98-27.4 79.6-29.66Q84.89-27.47 87.08-25.63L87.08-25.63ZM85.28-16.2L83.45-13.21Q79.96-16.02 76.18-17.75L76.18-17.75 77.72-20.09Q83.12-17.82 85.28-16.2L85.28-16.2ZM80.39 2.77L80.39 2.77 77.08 0.04Q80.21-4.46 83.92-11.81L83.92-11.81 86.94-8.93Q84.24-3.49 80.39 2.77ZM98.35-10.44L98.35-10.44Q101.77-15.19 103.61-24.73L103.61-24.73 93.02-24.73Q94.93-15.73 98.35-10.44ZM86.76 2.92L86.76 2.92Q86.08 1.4 85.25 0.18L85.25 0.18Q90.86-1.8 95.76-7.02L95.76-7.02Q90.76-14.54 88.7-24.01L88.7-24.01 92.12-24.73 87.3-24.73 87.3-27.43 104.87-27.43 105.66-27.68 108.36-26.78Q106.63-14.58 100.69-7.02L100.69-7.02Q104.83-2.02 109.84 0.11L109.84 0.11Q108.65 1.58 107.89 2.81L107.89 2.81Q101.2-0.29 98.06-4.03L98.06-4.03Q94.14 0 86.76 2.92ZM142.42-28.66L142.42-15.77 115.45-15.77 115.45-18.32 137.92-18.32 137.92-21.24 117.04-21.24 117.04-23.22 137.92-23.22 137.92-26.1 115.45-26.1 115.45-28.66 142.42-28.66ZM138.92-4.75L138.92-4.75 135.79-6.66Q137.59-9.4 139.21-13.43L139.21-13.43 143.03-11.27Q141.34-8.28 138.92-4.75ZM118.04-4.82L118.04-4.82 114.8-6.77Q116.89-8.93 118.19-13.18L118.19-13.18 122.18-11.7Q120.92-7.81 118.04-4.82ZM113.94 3.02L113.94 3.02Q113.54 1.94 112.64 0.43L112.64 0.43Q118.58-0.61 121.55-2.57 124.52-4.54 125.69-7.61 126.86-10.69 127.12-14.58L127.12-14.58 131.9-14.58Q131.72-12.53 131.26-10.19L131.26-10.19Q134.46-1.33 146.2-0.14L146.2-0.14Q146.2-0.11 145.66 0.74 145.12 1.58 144.72 2.63L144.72 2.63Q132.73 0.76 129.56-5.18L129.56-5.18Q128.81-3.35 125.24-0.94 121.68 1.48 113.94 3.02Z" transform="translate(-3.819999933242798, 29.65999984741211)"></path></g> <!----> <!----> <!----> <!----> <!----> <!----> <!----></g></g> <g data-gra="path-slogan" fill-rule="" class="tp-slogan iconsvg-slogansvg" fill="#652d90" transform="translate(5,37.68000030517578)"><rect x="0" height="1" y="3.6050000190734863" width="17.57862091064453"></rect> <rect height="1" y="3.6050000190734863" width="17.57862091064453" x="114.8013687133789"></rect> <g transform="translate(20.57862091064453,0)"><g transform="scale(1)"><path d="M6.57-5.59L6.57-5.59L5.59-5.59Q5.50-7.09 3.61-7.18L3.61-7.18Q1.85-7.13 1.85-5.80L1.85-5.80Q1.85-4.94 2.79-4.81L2.79-4.81L5.03-4.30Q6.79-3.87 6.79-2.15L6.79-2.15Q6.75 0.04 3.70 0.13L3.70 0.13Q2.02 0.13 1.33-0.56L1.33-0.56Q0.47-1.20 0.52-2.54L0.52-2.54L1.55-2.54Q1.59-0.73 3.70-0.69L3.70-0.69Q5.76-0.73 5.80-2.02L5.80-2.02Q5.97-3.09 4.08-3.44L4.08-3.44L2.45-3.78Q0.77-4.25 0.77-5.67L0.77-5.67Q0.90-7.99 3.52-8.08L3.52-8.08Q6.49-8.08 6.57-5.59ZM9.20-4.64L13.32-4.64L13.32-7.86L14.39-7.86L14.39 0L13.32 0L13.32-3.65L9.20-3.65L9.20 0L8.12 0L8.12-7.86L9.20-7.86L9.20-4.64ZM21.23 0L20.45-2.28L17.27-2.28L16.46 0L15.38 0L18.35-7.86L19.55-7.86L22.39 0L21.23 0ZM18.86-6.70L17.62-3.22L20.07-3.22L18.91-6.70L18.86-6.70ZM24.62-7.86L28.57-1.50L28.57-7.86L29.61-7.86L29.61 0L28.40 0L24.41-6.36L24.36-6.36L24.36 0L23.33 0L23.33-7.86L24.62-7.86ZM37.43-7.86L34.76-4.04L37.55 0L36.22 0L34.07-3.22L31.93 0L30.64 0L33.47-4.04L30.81-7.86L32.14-7.86L34.12-4.86L36.14-7.86L37.43-7.86ZM38.71-7.86L39.79-7.86L39.79 0L38.71 0L38.71-7.86ZM45.72-4.64L49.84-4.64L49.84-7.86L50.92-7.86L50.92 0L49.84 0L49.84-3.65L45.72-3.65L45.72 0L44.64 0L44.64-7.86L45.72-7.86L45.72-4.64ZM57.75 0L56.98-2.28L53.80-2.28L52.98 0L51.91 0L54.87-7.86L56.07-7.86L58.91 0L57.75 0ZM55.39-6.70L54.14-3.22L56.59-3.22L55.43-6.70L55.39-6.70ZM61.14-7.86L65.10-1.50L65.10-7.86L66.13-7.86L66.13 0L64.93 0L60.93-6.36L60.89-6.36L60.89 0L59.86 0L59.86-7.86L61.14-7.86ZM67.76-7.86L68.84-7.86L68.84-0.95L72.83-0.95L72.83 0L67.76 0L67.76-7.86ZM74.04-7.86L75.11-7.86L75.11 0L74.04 0L74.04-7.86ZM78.20-7.86L82.16-1.50L82.16-7.86L83.19-7.86L83.19 0L81.98 0L77.99-6.36L77.95-6.36L77.95 0L76.91 0L76.91-7.86L78.20-7.86ZM90.71-3.31L88.30-3.31L88.30-4.21L91.74-4.21L91.74 0L91.05 0L90.79-0.99Q89.89 0.09 88.21 0.13L88.21 0.13Q86.63 0.13 85.77-0.69L85.77-0.69Q84.48-1.89 84.52-4.00L84.52-4.00Q84.82-7.91 88.26-8.08L88.26-8.08Q91.18-7.91 91.61-5.50L91.61-5.50L90.58-5.50Q90.15-7.13 88.21-7.18L88.21-7.18Q85.77-7.00 85.64-3.95L85.64-3.95Q85.64-0.69 88.26-0.69L88.26-0.69Q89.20-0.69 89.89-1.20L89.89-1.20Q90.75-1.89 90.71-3.31L90.71-3.31Z" transform="translate(-0.515625, 8.078125)"></path></g></g></g></g></g><defs v-gra="od"></defs></svg>